Coordinates
version=1
nRows=10
nColumns=40
inDegrees=yes

Units are S.I. units (second, meters, Newtons, ...)
Angles are in degrees.

endheader
time	pelvis_tilt	pelvis_list	pelvis_rotation	pelvis_tx	pelvis_ty	pelvis_tz	hip_flexion_r	hip_adduction_r	hip_rotation_r	knee_angle_r	knee_angle_r_beta	ankle_angle_r	subtalar_angle_r	mtp_angle_r	hip_flexion_l	hip_adduction_l	hip_rotation_l	knee_angle_l	knee_angle_l_beta	ankle_angle_l	subtalar_angle_l	mtp_angle_l	lumbar_extension	lumbar_bending	lumbar_rotation	arm_flex_r	arm_add_r	arm_rot_r	elbow_flex_r	pro_sup_r	wrist_flex_r	wrist_dev_r	arm_flex_l	arm_add_l	arm_rot_l	elbow_flex_l	pro_sup_l	wrist_flex_l	wrist_dev_l
     40.14000000	     -5.86930144	     -4.94305352	      1.93940328	      0.94993925	      0.91521852	      0.40973808	     14.38570545	     -6.00045287	     -8.17189839	     55.42739800	     55.42739800	      1.68842666	    -16.67943140	     -4.47379740	     23.58993720	     -2.92406648	     -1.14690947	     32.62004940	     32.62004940	     17.58101068	    -17.28863745	      9.08194231	     -9.89625288	      5.13283479	      4.08891642	     29.73678394	    -14.37147251	    -17.15275849	     36.26294953	     44.43787558	      0.00000000	      0.00000000	      9.43042400	    -14.88161433	     16.81485053	     40.18609782	     44.57873389	      0.00000000	      0.00000000
     40.15992857	     -5.71341437	     -4.93590725	      1.46005120	      0.94934179	      0.91462949	      0.40754767	     16.56479474	     -5.99779167	     -7.50879729	     58.34478744	     58.34478744	      2.40354843	    -17.68002013	     -0.96482843	     23.11343295	     -2.88012857	     -1.41428023	     32.96389148	     32.96389148	     18.33275864	    -17.43369749	      9.41536289	    -10.08888075	      5.39490324	      3.73263820	     26.19613044	    -13.86498848	    -17.41526531	     35.08832311	     44.57370392	      0.00000000	      0.00000000	     11.03478415	    -15.17753316	     16.41908153	     41.50790573	     44.72818437	      0.00000000	      0.00000000
     40.17985714	     -5.61810814	     -4.83654317	      0.94882103	      0.94874233	      0.91397245	      0.40527755	     18.69578269	     -6.18947774	     -7.03573143	     60.78398274	     60.78398274	      2.46544400	    -18.46640786	     -0.03212941	     22.64552779	     -2.72795131	     -1.74351578	     33.22297020	     33.22297020	     18.85899242	    -17.64836718	      9.31114615	    -10.21491070	      5.58167246	      3.17217371	     22.79363803	    -13.29380143	    -17.45613291	     33.58634791	     44.63104508	      0.00000000	      0.00000000	     12.71340037	    -15.53359482	     16.04424527	     42.34032881	     44.80674159	      0.00000000	      0.00000000
     40.19978571	     -5.39565790	     -4.90956502	      0.42853381	      0.94821906	      0.91377578	      0.40353490	     20.77660588	     -5.83142745	     -6.29883120	     63.05514507	     63.05514507	      4.84838927	    -18.60329213	      7.72739306	     22.00024859	     -2.80159197	     -2.06752135	     33.42902039	     33.42902039	     19.64642962	    -17.71966330	      9.78049196	    -10.51352943	      5.91444797	      3.17509473	     19.23699073	    -12.98315441	    -18.02618773	     31.86178557	     44.81598837	      0.00000000	      0.00000000	     14.65293367	    -15.67571466	     15.46532558	     43.30384014	     44.98509152	      0.00000000	      0.00000000
     40.21971429	     -5.27480021	     -4.84553291	     -0.15027509	      0.94776635	      0.91368006	      0.40188848	     22.61886133	     -5.80474649	     -5.89332188	     64.29636573	     64.29636573	      5.27224120	    -18.91516682	      8.43691320	     21.32874435	     -2.74470628	     -2.53027172	     33.38882151	     33.38882151	     20.10196475	    -17.81515116	      9.72626800	    -10.69466578	      6.11001263	      3.00267012	     15.87634675	    -12.65392702	    -18.15869172	     30.18110622	     44.89335128	      0.00000000	      0.00000000	     16.36999724	    -15.96771404	     14.95225767	     44.27545661	     45.08181509	      0.00000000	      0.00000000
     40.23964286	     -5.12116343	     -4.91338437	     -0.75879859	      0.94733102	      0.91412762	      0.40084370	     24.34864470	     -5.36611185	     -5.36088447	     64.95027580	     64.95027580	      6.91538778	    -18.98450893	     12.58079396	     20.53063437	     -2.86582002	     -2.99407927	     33.17486249	     33.17486249	     20.54694930	    -17.82203939	      9.79436223	    -10.93829594	      6.40886582	      2.89798243	     12.82876141	    -12.30274872	    -18.90636903	     28.26608004	     45.11681944	      0.00000000	      0.00000000	     18.05348586	    -16.06130070	     13.72626530	     45.09561116	     45.31413221	      0.00000000	      0.00000000
     40.25957143	     -5.03137147	     -4.90631315	     -1.42955897	      0.94696998	      0.91490028	      0.40015582	     25.82845882	     -5.02350640	     -4.97327276	     64.60894666	     64.60894666	      7.58917046	    -19.05164031	     12.69246183	     19.64419241	     -2.93122911	     -3.57758761	     32.67133125	     32.67133125	     20.82857530	    -17.78680038	      9.75012920	    -11.11144216	      6.57061384	      2.85217643	      9.79884629	    -12.05460205	    -19.05771451	     26.74941159	     45.19803150	      0.00000000	      0.00000000	     19.56989211	    -16.30775635	     13.00959817	     46.16946067	     45.42664949	      0.00000000	      0.00000000
     40.27950000	     -4.99755730	     -4.95302750	     -2.12068972	      0.94657943	      0.91611539	      0.39997646	     27.14938755	     -4.51341446	     -4.64024002	     63.43960711	     63.43960711	      8.29525657	    -19.04482447	     12.73219970	     18.69964043	     -3.08183816	     -4.22636806	     31.92787381	     31.92787381	     20.95165515	    -17.69573534	      9.68737359	    -11.22261266	      6.78843049	      2.76941834	      6.99569528	    -11.81266379	    -19.20787856	     25.40868991	     45.27522296	      0.00000000	      0.00000000	     20.91664109	    -16.57199262	     12.05571101	     47.24694710	     45.55745739	      0.00000000	      0.00000000
     40.29942857	     -5.03167682	     -5.03613895	     -2.85767433	      0.94614227	      0.91766401	      0.40030626	     28.29217710	     -3.86797935	     -4.34410330	     61.43789475	     61.43789475	      8.89901594	    -18.92800080	     12.32280320	     17.71066756	     -3.30351913	     -4.95470145	     30.95847031	     30.95847031	     20.94149638	    -17.52532533	      9.48581450	    -11.28804845	      6.98220068	      2.75969782	      4.33631106	    -11.62307072	    -19.36190330	     24.24774040	     45.35528779	      0.00000000	      0.00000000	     22.10252791	    -16.74282760	     10.65826061	     48.54105091	     45.73073329	      0.00000000	      0.00000000
     40.31935714	     -5.17826502	     -5.15145402	     -3.60232497	      0.94568343	      0.91940361	      0.40104455	     29.18877477	     -3.17377773	     -4.19110565	     58.48683221	     58.48683221	      8.79401434	    -18.76153906	      9.59597789	     16.71164095	     -3.58331051	     -5.76943204	     29.71275342	     29.71275342	     20.49836992	    -17.33776482	      8.47370191	    -11.26954220	      7.19889864	      2.42222785	      1.98141276	    -11.41855517	    -19.58219268	     23.65942664	     45.49302453	      0.00000000	      0.00000000	     22.57729758	    -16.65509908	      6.99522180	     50.57988527	     46.13434690	      0.00000000	      0.00000000
